<svg width="29" height="29" viewBox="0 0 29 29" fill="none" xmlns="http://www.w3.org/2000/svg">
<g id="facebook 1" clip-path="url(#clip0_266_613)">
<path id="Vector" d="M28.9997 14.5887C28.9997 6.5303 22.5073 -0.00195312 14.4997 -0.00195312C6.48847 -0.000140625 -0.00390625 6.5303 -0.00390625 14.5905C-0.00390625 21.8713 5.29947 27.9069 12.2305 29.0017V18.8064H8.55109V14.5905H12.2341V11.3733C12.2341 7.71748 14.4 5.69836 17.7115 5.69836C19.2992 5.69836 20.9577 5.98292 20.9577 5.98292V9.57167H19.1288C17.329 9.57167 16.7672 10.6972 16.7672 11.8518V14.5887H20.7873L20.1457 18.8045H16.7653V28.9999C23.6963 27.9051 28.9997 21.8695 28.9997 14.5887Z" fill="white"/>
</g>
<defs>
<clipPath id="clip0_266_613">
<rect width="29" height="29" fill="white"/>
</clipPath>
</defs>
</svg>
