<svg width="29" height="29" viewBox="0 0 29 29" fill="none" xmlns="http://www.w3.org/2000/svg">
<g id="instagram 1" clip-path="url(#clip0_266_605)">
<path id="Vector" d="M14.5 0C10.5651 0 10.0703 0.018125 8.52419 0.087C6.97813 0.1595 5.92506 0.402375 5.0025 0.76125C4.03434 1.12434 3.15763 1.69541 2.43419 2.43419C1.69541 3.15763 1.12434 4.03434 0.76125 5.0025C0.402375 5.92325 0.157688 6.97812 0.087 8.51875C0.018125 10.0684 0 10.5614 0 14.5018C0 18.4386 0.018125 18.9316 0.087 20.4776C0.1595 22.0219 0.402375 23.0749 0.76125 23.9975C1.13281 24.9509 1.62763 25.7592 2.43419 26.5658C3.23894 27.3724 4.04731 27.869 5.00069 28.2388C5.92506 28.5976 6.97631 28.8423 8.52056 28.913C10.0684 28.9819 10.5614 29 14.5 29C18.4386 29 18.9298 28.9819 20.4776 28.913C22.0201 28.8405 23.0767 28.5976 23.9993 28.2388C24.9668 27.8754 25.8429 27.3044 26.5658 26.5658C27.3724 25.7592 27.8672 24.9509 28.2388 23.9975C28.5958 23.0749 28.8405 22.0219 28.913 20.4776C28.9819 18.9316 29 18.4386 29 14.5C29 10.5614 28.9819 10.0684 28.913 8.52056C28.8405 6.97813 28.5958 5.92325 28.2388 5.0025C27.8757 4.03434 27.3046 3.15763 26.5658 2.43419C25.8424 1.69541 24.9657 1.12434 23.9975 0.76125C23.0731 0.402375 22.0182 0.157688 20.4758 0.087C18.9279 0.018125 18.4368 0 14.4964 0H14.5ZM13.2004 2.61363H14.5018C18.3733 2.61363 18.8319 2.62631 20.3598 2.697C21.7736 2.76044 22.5421 2.99787 23.0532 3.19544C23.7292 3.45825 24.2132 3.77362 24.7207 4.28113C25.2282 4.78862 25.5417 5.27075 25.8046 5.94863C26.0039 6.45794 26.2396 7.22644 26.303 8.64019C26.3737 10.1681 26.3882 10.6267 26.3882 14.4964C26.3882 18.3661 26.3737 18.8264 26.303 20.3544C26.2396 21.7681 26.0021 22.5348 25.8046 23.0459C25.5704 23.6747 25.1996 24.2436 24.7189 24.7116C24.2114 25.2191 23.7292 25.5327 23.0514 25.7955C22.5439 25.9949 21.7754 26.2305 20.3598 26.2958C18.8319 26.3646 18.3733 26.3809 14.5018 26.3809C10.6303 26.3809 10.1699 26.3646 8.642 26.2958C7.22825 26.2305 6.46156 25.9949 5.95044 25.7955C5.3212 25.5622 4.75165 25.1919 4.28294 24.7116C3.80131 24.2433 3.42984 23.6737 3.19544 23.0441C2.99787 22.5348 2.76044 21.7663 2.697 20.3526C2.62812 18.8246 2.61363 18.3661 2.61363 14.4927C2.61363 10.6194 2.62812 10.1645 2.697 8.63656C2.76225 7.22281 2.99788 6.45431 3.19725 5.94319C3.46006 5.26713 3.77544 4.78319 4.28294 4.27569C4.79044 3.76819 5.27256 3.45463 5.95044 3.19181C6.46156 2.99244 7.22825 2.75681 8.642 2.69156C9.97962 2.62994 10.498 2.61181 13.2004 2.61V2.61363ZM22.2412 5.02063C22.0127 5.02063 21.7864 5.06563 21.5753 5.15307C21.3642 5.24052 21.1724 5.36869 21.0108 5.53026C20.8492 5.69183 20.7211 5.88365 20.6336 6.09476C20.5462 6.30586 20.5012 6.53212 20.5012 6.76062C20.5012 6.98913 20.5462 7.21539 20.6336 7.42649C20.7211 7.6376 20.8492 7.82942 21.0108 7.99099C21.1724 8.15257 21.3642 8.28073 21.5753 8.36818C21.7864 8.45562 22.0127 8.50062 22.2412 8.50062C22.7027 8.50062 23.1452 8.3173 23.4716 7.99099C23.7979 7.66468 23.9812 7.2221 23.9812 6.76062C23.9812 6.29915 23.7979 5.85657 23.4716 5.53026C23.1452 5.20395 22.7027 5.02063 22.2412 5.02063ZM14.5018 7.05425C13.5141 7.03884 12.5332 7.22007 11.6163 7.58738C10.6993 7.95469 9.86456 8.50075 9.16065 9.19377C8.45674 9.88678 7.89772 10.7129 7.51615 11.624C7.13458 12.5352 6.93807 13.5131 6.93807 14.5009C6.93807 15.4887 7.13458 16.4666 7.51615 17.3778C7.89772 18.2889 8.45674 19.115 9.16065 19.808C9.86456 20.5011 10.6993 21.0471 11.6163 21.4144C12.5332 21.7817 13.5141 21.963 14.5018 21.9476C16.4567 21.9171 18.3211 21.1191 19.6928 19.7259C21.0644 18.3327 21.8332 16.456 21.8332 14.5009C21.8332 12.5458 21.0644 10.6691 19.6928 9.27592C18.3211 7.88272 16.4567 7.08475 14.5018 7.05425ZM14.5018 9.66606C15.1366 9.66606 15.7652 9.7911 16.3517 10.034C16.9382 10.277 17.4711 10.633 17.9199 11.0819C18.3688 11.5308 18.7249 12.0637 18.9678 12.6501C19.2107 13.2366 19.3358 13.8652 19.3358 14.5C19.3358 15.1348 19.2107 15.7634 18.9678 16.3499C18.7249 16.9363 18.3688 17.4692 17.9199 17.9181C17.4711 18.367 16.9382 18.723 16.3517 18.966C15.7652 19.2089 15.1366 19.3339 14.5018 19.3339C13.2198 19.3339 11.9902 18.8246 11.0837 17.9181C10.1772 17.0116 9.66788 15.782 9.66788 14.5C9.66788 13.218 10.1772 11.9884 11.0837 11.0819C11.9902 10.1754 13.2198 9.66606 14.5018 9.66606Z" fill="white"/>
</g>
<defs>
<clipPath id="clip0_266_605">
<rect width="29" height="29" fill="white"/>
</clipPath>
</defs>
</svg>
