<svg width="29" height="29" viewBox="0 0 29 29" fill="none" xmlns="http://www.w3.org/2000/svg">
<g id="twitter 1" clip-path="url(#clip0_266_615)">
<path id="Vector" d="M9.10962 27.1873C20.0535 27.1873 26.0402 18.1194 26.0402 10.2694C26.0426 10.0145 26.039 9.7595 26.0293 9.50454C27.1945 8.66036 28.2003 7.61583 29 6.41967C27.9109 6.89866 26.7573 7.215 25.5762 7.35854C26.8206 6.61489 27.7526 5.44456 28.1989 4.06523C27.0303 4.75891 25.7505 5.24519 24.4162 5.50254C23.5193 4.5474 22.3325 3.91464 21.0397 3.70229C19.7468 3.48994 18.4199 3.70984 17.2647 4.32793C16.1094 4.94602 15.1902 5.92781 14.6494 7.12121C14.1087 8.31462 13.9765 9.65304 14.2734 10.9292C11.9075 10.8111 9.59292 10.1968 7.47988 9.12603C5.36683 8.0553 3.50261 6.55212 2.00825 4.7141C1.24987 6.0248 1.01854 7.57493 1.3612 9.04993C1.70387 10.5249 2.59486 11.8143 3.85337 12.6565C2.9098 12.626 1.98685 12.3726 1.16 11.917V11.9985C1.16231 13.3713 1.63817 14.7012 2.50727 15.7638C3.37637 16.8264 4.58548 17.5566 5.9305 17.8312C5.41987 17.9719 4.89236 18.042 4.36269 18.0396C3.98917 18.0435 3.61624 18.0089 3.24981 17.9363C3.62934 19.1186 4.36953 20.1524 5.36652 20.8925C6.3635 21.6327 7.56722 22.0421 8.80875 22.0634C6.69919 23.7181 4.09488 24.6162 1.41375 24.6135C0.941228 24.6171 0.468978 24.5899 0 24.532C2.72133 26.2674 5.88204 27.1887 9.10962 27.1873Z" fill="white"/>
</g>
<defs>
<clipPath id="clip0_266_615">
<rect width="29" height="29" fill="white"/>
</clipPath>
</defs>
</svg>
